<?xml version="1.0" standalone="no"?><!DOCTYPE svg PUBLIC "-//W3C//DTD SVG 1.1//EN" "http://www.w3.org/Graphics/SVG/1.1/DTD/svg11.dtd"><svg t="1752651493591" class="icon" viewBox="0 0 1024 1024" version="1.1" xmlns="http://www.w3.org/2000/svg" p-id="2417" xmlns:xlink="http://www.w3.org/1999/xlink" width="200" height="200"><path d="M510.7 962.4c-60.7 0-119.5-11.9-175-35.3-53.5-22.6-101.6-55-142.9-96.3-41.3-41.3-73.7-89.3-96.3-142.9-23.4-55.4-35.3-114.3-35.3-175s11.9-119.5 35.3-175c22.6-53.5 55-101.6 96.3-142.9 41.3-41.3 89.3-73.7 142.9-96.3 55.4-23.4 114.3-35.3 175-35.3s119.5 11.9 175 35.3c53.5 22.6 101.6 55 142.9 96.3 41.3 41.3 73.7 89.3 96.3 142.9 23.4 55.4 35.3 114.3 35.3 175s-11.9 119.5-35.3 175c-22.6 53.5-55 101.6-96.3 142.9-41.3 41.3-89.3 73.7-142.9 96.3-55.5 23.4-114.3 35.3-175 35.3z m0-854.9c-223.5 0-405.4 181.9-405.4 405.4s181.9 405.4 405.4 405.4 405.4-181.9 405.4-405.4-181.9-405.4-405.4-405.4z" fill="#fffffe" p-id="2418"></path><path d="M404.9 336.3v352.6l305.4-176.3z" fill="#fffffe" p-id="2419"></path></svg>